<svg xmlns="http://www.w3.org/2000/svg" x="0px" y="0px" viewBox="0 0 128 128" xmlns="http://www.w3.org/2000/svg" style="enable-background:new 0 0 128 128;fill:currentColor">
 <g>
  <path d="m16.334 12c-2.4007 0-4.334 1.9333-4.334 4.334v95.332c0 2.4007 1.9333 4.334 4.334 4.334h95.332c2.4007 0 4.334-1.9333 4.334-4.334v-95.332c0-2.4007-1.9333-4.334-4.334-4.334h-95.332zm22.166 4h51c3.601 0 6.5 2.899 6.5 6.5v23c0 3.601-2.899 6.5-6.5 6.5h-51c-3.601 0-6.5-2.899-6.5-6.5v-23c0-3.601 2.899-6.5 6.5-6.5zm-10.166 60h71.332c2.4007 0 4.334 1.9333 4.334 4.334v27.332c0 2.4007-1.9333 4.334-4.334 4.334h-71.332c-2.4007 0-4.334-1.9333-4.334-4.334v-27.332c0-2.4007 1.9333-4.334 4.334-4.334z"/>
  <rect x="72" y="20" width="16" height="28" ry="5.0556"/>
 </g>
</svg>
