<svg fill="currentColor" version="1.1" viewBox="0 0 128 128" xml:space="preserve" xmlns="http://www.w3.org/2000/svg"><g><path d="m63.969 24.721c-10.499 0-19.009 6.1596-19.009 19.377 0 13.217 8.5107 23.932 19.009 23.932s19.009-10.715 19.009-23.932c0-13.217-8.5107-19.377-19.009-19.377zm-7.1285 43.308c-18.372 0-30.89 15.001-30.89 33.505v4.7855s4.7523 14.359 38.018 14.359 38.018-14.359 38.018-14.359v-4.7855c0-18.504-12.518-33.505-30.89-33.505 0 0-2.3762 2.2941-7.1285 2.2941-4.7523 0-7.1285-2.2941-7.1285-2.2941z"/><path d="m38.206 8.7129c-10.499 0-19.009 6.1596-19.009 19.377 0 13.217 8.5107 23.932 19.009 23.932 2.0193 0 1.9092-0.21703 3.7351-0.9514-0.50556-2.1537-0.78749-4.4284-0.78749-6.7884 0-10.969 7.9412-20.514 15.937-22.275-1.1342-11.275-9.1632-13.294-18.884-13.294zm-7.1285 43.308c-18.372 0-30.89 15.001-30.89 33.505v4.7855s1.3423 9.9876 22.006 13.253v-2.1241c0-18.504 13.128-30.089 19.85-33.45 4.0019-2.001 7.0433-1.9631 7.0433-1.9631s-4.7299-6.8472-6.6625-13.196c-1.0694 0.67939-1.0907 1.4829-4.2177 1.4829-4.7523 0-7.1285-2.2941-7.1285-2.2941z"/><path d="m89.982 8.7129c10.499 0 19.009 6.1596 19.009 19.377 0 13.217-8.5107 23.932-19.009 23.932-2.0194 0-1.9092-0.21703-3.7351-0.9514 0.50556-2.1537 0.78749-4.4284 0.78749-6.7884 0-10.969-7.9412-20.514-15.937-22.275 1.1342-11.275 9.1632-13.294 18.884-13.294zm7.1285 43.308c18.372 0 30.89 15.001 30.89 33.505v4.7855s-1.3423 9.9876-22.006 13.253v-2.1241c0-18.504-13.128-30.089-19.85-33.45-4.0019-2.001-7.0433-1.9631-7.0433-1.9631s4.7299-6.8472 6.6625-13.196c1.0694 0.67939 1.0907 1.4829 4.2177 1.4829 4.7523 0 7.1285-2.2941 7.1285-2.2941z"/></g></svg>
